<svg width="1514" height="706" viewBox="0 0 1414 1006" fill="none" xmlns="http://www.w3.org/2000/svg">
            <path d="M739.5 236.496C742.784 230.848 746.656 226.313 751.115 222.891C755.573 219.469 761.656 217.762 769.363 217.772C771.695 217.74 774.498 217.828 777.771 218.035C781.111 218.127 784.527 217.954 788.02 217.518C791.513 217.082 794.77 216.123 797.792 214.641C800.995 213.111 803.536 210.732 805.413 207.505C806.821 205.085 807.6 202.684 807.75 200.304C807.901 197.924 807.596 195.664 806.835 193.524C806.074 191.385 804.824 189.424 803.084 187.641C801.527 185.81 799.711 184.291 797.637 183.084C795.101 181.609 792.528 180.73 789.917 180.445C787.373 180.045 784.835 180.034 782.301 180.411C779.95 180.741 777.581 181.368 775.192 182.292C772.986 183.168 770.986 184.087 769.192 185.049L760.185 165.928C763.761 163.226 767.564 161.196 771.593 159.838C775.738 158.547 779.903 157.884 784.087 157.85C788.454 157.768 792.749 158.338 796.974 159.562C801.265 160.669 805.37 162.363 809.289 164.642C813.669 167.19 817.622 170.338 821.149 174.086C824.676 177.834 827.306 182.063 829.04 186.774C830.889 191.551 831.577 196.733 831.104 202.319C830.813 207.857 828.925 213.623 825.439 219.616C823.294 223.304 820.922 226.321 818.324 228.666C815.908 230.963 813.223 232.794 810.269 234.161C807.315 235.528 804.206 236.496 800.944 237.066C797.681 237.637 794.164 237.982 790.393 238.102C787.283 238.144 784.207 238.129 781.164 238.056C778.122 237.983 775.152 238.183 772.254 238.657C769.538 239.083 766.943 239.964 764.469 241.301C762.177 242.59 760.193 244.676 758.517 247.557L739.5 236.496ZM716.415 276.978L730.292 253.121L749.482 264.282L735.605 288.14L716.415 276.978Z" fill="#B4FFFA"/>
            <circle cx="1108.63" cy="842.629" r="61.2561" transform="rotate(135 1108.63 842.629)" fill="url(#paint0_linear)" fill-opacity="0.5"/>
            <circle cx="1380.5" cy="81.5" r="81.5" fill="url(#paint1_linear)" fill-opacity="0.5"/>
            <circle cx="81.5" cy="329.5" r="81.5" fill="url(#paint2_linear)" fill-opacity="0.5"/>
            <g opacity="0.25">
            <g clip-path="url(#clip0)">
            <path d="M403.494 979.338L390.187 987.762C387.024 980.7 380.606 975.531 372.838 973.77C365.086 972.026 358.383 967.191 354.283 960.386C346.027 946.72 350.904 927.682 365.001 918.537C379.895 908.887 399.455 912.747 408.415 927.027C412.692 933.843 413.712 941.793 412.075 949.302C410.234 957.242 411.825 964.838 416.877 970.863L403.494 979.338Z" fill="#FEDB41"/>
            <path d="M395.815 993.513L420.013 978.331L427.836 990.799L403.638 1005.98L395.815 993.513Z" fill="#00ACEA"/>
            <path d="M360.093 911.089C361.011 910.513 361.289 909.301 360.713 908.383L354.062 897.782C353.486 896.864 352.274 896.587 351.356 897.163C350.438 897.739 350.161 898.951 350.737 899.869L357.388 910.469C357.964 911.387 359.175 911.665 360.093 911.089Z" fill="#F4B844"/>
            <path d="M398.334 890.256C397.292 889.957 396.205 890.561 395.907 891.603L392.324 904.103C392.127 904.778 392.305 905.508 392.793 906.015C393.281 906.523 394.004 906.73 394.687 906.558C395.369 906.386 395.908 905.862 396.098 905.184L399.68 892.684C399.979 891.642 399.377 890.555 398.334 890.256Z" fill="#F4B844"/>
            <path d="M340.785 939.125C341.463 938.701 341.815 937.906 341.674 937.118C341.533 936.33 340.928 935.707 340.144 935.543L327.536 932.9C326.844 932.742 326.121 932.971 325.645 933.496C325.169 934.022 325.013 934.764 325.238 935.436C325.464 936.109 326.034 936.608 326.731 936.741L339.34 939.384C339.836 939.489 340.355 939.396 340.785 939.125Z" fill="#F4B844"/>
            <path d="M395.239 934.793C392.632 936.429 392.501 939.093 392.405 941.037C392.316 942.859 392.201 943.65 391.407 944.148C390.612 944.647 389.849 944.406 388.17 943.694C386.378 942.934 383.923 941.893 381.316 943.529C378.709 945.165 378.578 947.828 378.482 949.773C378.393 951.595 378.278 952.385 377.484 952.884C376.689 953.383 375.926 953.142 374.247 952.43C372.455 951.67 370 950.629 367.393 952.264C366.475 952.84 366.197 954.052 366.773 954.97C367.349 955.888 368.561 956.165 369.479 955.589C370.274 955.091 371.036 955.332 372.714 956.044C374.507 956.804 376.962 957.845 379.57 956.209C382.177 954.573 382.307 951.91 382.403 949.965C382.412 949.786 382.421 949.62 382.431 949.46L401.937 980.549L405.262 978.463L385.41 946.823C385.76 946.943 386.161 947.105 386.638 947.308C388.43 948.068 390.886 949.109 393.493 947.473C396.1 945.837 396.23 943.174 396.326 941.229C396.415 939.407 396.531 938.616 397.325 938.118C398.243 937.542 398.521 936.33 397.945 935.412C397.369 934.494 396.157 934.217 395.239 934.793Z" fill="#F4B844"/>
            </g>
            </g>
            <defs>
            <linearGradient id="paint0_linear" x1="1108.63" y1="781.373" x2="1108.63" y2="903.885" gradientUnits="userSpaceOnUse">
            <stop stop-color="#A8A6FA" stop-opacity="0.838542"/>
            <stop offset="1" stop-color="#C4C4C4" stop-opacity="0"/>
            </linearGradient>
            <linearGradient id="paint1_linear" x1="1380.5" y1="0" x2="1380.5" y2="163" gradientUnits="userSpaceOnUse">
            <stop stop-color="#FAA6A6" stop-opacity="0.838542"/>
            <stop offset="1" stop-color="#C4C4C4" stop-opacity="0"/>
            </linearGradient>
            <linearGradient id="paint2_linear" x1="81.5" y1="248" x2="81.5" y2="411" gradientUnits="userSpaceOnUse">
            <stop stop-color="#BCFAA6" stop-opacity="0.838542"/>
            <stop offset="1" stop-color="#C4C4C4" stop-opacity="0"/>
            </linearGradient>
            <clipPath id="clip0">
            <rect x="301" y="928.758" width="119.964" height="119.964" transform="rotate(-32.1053 301 928.758)" fill="white"/>
            </clipPath>
            </defs>
        </svg>