<?xml version="1.0" encoding="iso-8859-1"?>
<!-- Generator: Adobe Illustrator 19.0.0, SVG Export Plug-In . SVG Version: 6.00 Build 0)  -->
<svg version="1.1" id="Layer_1" xmlns="http://www.w3.org/2000/svg" xmlns:xlink="http://www.w3.org/1999/xlink" x="0px" y="0px"
	 viewBox="0 0 512 512" style="enable-background:new 0 0 512 512;" xml:space="preserve">
<rect x="60.771" y="181.966" style="fill:#C9E8FA;" width="390.457" height="241.058"/>
<rect x="256" y="181.966" style="fill:#B6E0F7;" width="195.229" height="241.058"/>
<rect y="438.698" style="fill:#57555C;" width="512" height="72.652"/>
<path style="fill:#67BFFF;" d="M45.098,166.288v272.405h421.804V166.288L45.098,166.288L45.098,166.288z M435.555,407.346H76.445
	V197.635h359.111V407.346z"/>
<polygon style="fill:#0088FF;" points="466.902,166.288 466.902,438.693 256,438.693 256,407.346 435.555,407.346 435.555,197.635 
	256,197.635 256,166.288 "/>
<rect x="256" y="438.698" style="fill:#3C3A41;" width="256" height="72.652"/>
<rect x="245.164" y="466.283" style="fill:#FFFFFF;" width="21.671" height="21.682"/>
<rect x="256" y="466.283" style="fill:#D9D8DB;" width="10.836" height="21.682"/>
<polygon style="fill:#57555C;" points="364.669,121.368 316.322,121.368 316.322,0.65 195.678,0.65 195.678,121.368 
	147.331,121.368 256,270.474 "/>
<polygon style="fill:#3C3A41;" points="316.322,0.65 256,0.65 256,270.474 364.669,121.368 316.322,121.368 "/>
<g>
</g>
<g>
</g>
<g>
</g>
<g>
</g>
<g>
</g>
<g>
</g>
<g>
</g>
<g>
</g>
<g>
</g>
<g>
</g>
<g>
</g>
<g>
</g>
<g>
</g>
<g>
</g>
<g>
</g>
</svg>
