<svg height="512" viewBox="0 0 512 512" width="512" xmlns="http://www.w3.org/2000/svg"><g fill="#0071bc"><path d="m240 224h56v16h-56z"/><path d="m240 256h56v16h-56z"/><path d="m240 288h56v16h-56z"/><path d="m376 224h32v16h-32z"/><path d="m376 256h32v16h-32z"/><path d="m376 288h32v16h-32z"/><path d="m296 184h16v40h-16z"/><path d="m328 184h16v40h-16z"/><path d="m360 184h16v40h-16z"/><path d="m296 304h16v40h-16z"/><path d="m328 304h16v40h-16z"/><path d="m360 304h16v40h-16z"/></g><path d="m352 96h-104v-16h100.688l37.656-37.656 11.312 11.312-40 40a8 8 0 0 1 -5.656 2.344z" fill="#6cbbc7"/><rect fill="#ff5086" height="32" rx="16" width="32" x="384" y="24"/><path d="m354.344 469.656-21.656-21.656h-84.688v-16h88a8 8 0 0 1 5.656 2.344l24 24z" fill="#6cbbc7"/><rect fill="#ff5086" height="32" rx="16" width="32" x="352" y="456"/><path d="m448 440h-16v-40h-176v-16h184a8 8 0 0 1 8 8z" fill="#6cbbc7"/><rect fill="#ff5086" height="32" rx="16" width="32" x="424" y="432"/><path d="m416 144h-160v-16h156.688l29.656-29.656 11.312 11.312-32 32a8 8 0 0 1 -5.656 2.344z" fill="#6cbbc7"/><rect fill="#ff5086" height="32" rx="16" width="32" x="440" y="80"/><path d="m248 176h224v16h-224z" fill="#6cbbc7"/><rect fill="#ff5086" height="32" rx="16" width="32" x="456" y="168"/><path d="m248 336h232v16h-232z" fill="#6cbbc7"/><rect fill="#ff5086" height="32" rx="16" width="32" x="456" y="328"/><path d="m208 16a56.04 56.04 0 0 0 -55.361 48h-.639a71.918 71.918 0 0 0 -63.688 105.481 87.879 87.879 0 0 0 -32.312 160.18v14.339a48.035 48.035 0 0 0 40 47.277v8.723a48.052 48.052 0 0 0 48 48h8.639a55.965 55.965 0 0 0 111.361-8v-368a56.065 56.065 0 0 0 -56-56z" fill="#ff5086"/><path d="m288 216h96v96h-96z" fill="#6cbbc7"/><path d="m242.064 27.655a402 402 0 0 1 5.936 68.345c0 126.8-59.071 239.743-151.12 313.026a48.057 48.057 0 0 0 47.12 38.974h8.639a55.965 55.965 0 0 0 111.361-8v-368a55.884 55.884 0 0 0 -21.936-44.345z" fill="#ff2a6c"/><path d="m160 360a40.047 40.047 0 0 1 -40-40v-8h16v8a24 24 0 0 0 48 0v-8h16v8a40.047 40.047 0 0 1 -40 40z" fill="#b22639"/><path d="m168 296h-16v-16a24 24 0 0 0 -48 0v16h-16v-16a40 40 0 0 1 80 0z" fill="#b22639"/><path d="m176 240h-8v-16h8a32 32 0 0 0 0-64h-8v-16h8a48 48 0 0 1 0 96z" fill="#b22639"/><path d="m192 448h-8v-16h8a24 24 0 0 0 0-48h-8v-16h8a40 40 0 0 1 0 80z" fill="#b22639"/><path d="m187.715 128a36.038 36.038 0 0 1 -25.656-10.625l-7.719-7.719 11.32-11.312 7.715 7.718a20.284 20.284 0 0 0 28.684-28.687l-7.719-7.719 11.32-11.312 7.715 7.718a36.284 36.284 0 0 1 -25.66 61.938z" fill="#b22639"/><path d="m264 328h-16v-16a40.047 40.047 0 0 0 -40-40h-8v-16h8a56.065 56.065 0 0 1 56 56z" fill="#b22639"/><path d="m288 299.135v12.865h96v-82.447a401.032 401.032 0 0 1 -96 69.582z" fill="#518c95"/><path d="m320 248h32v32h-32z" fill="#0071bc"/><path d="m320.915 280h31.085v-22.282q-14.982 11.86-31.085 22.282z" fill="#005a97"/></svg>