<?xml version="1.0" encoding="iso-8859-1"?>
<!-- Generator: Adobe Illustrator 19.0.0, SVG Export Plug-In . SVG Version: 6.00 Build 0)  -->
<svg version="1.1" id="Capa_1" xmlns="http://www.w3.org/2000/svg" xmlns:xlink="http://www.w3.org/1999/xlink" x="0px" y="0px"
	 viewBox="0 0 472 472" style="enable-background:new 0 0 472 472;" xml:space="preserve">
<path style="fill:#1598FC;" d="M464,373.92c-46.4,0-46.4-27.84-92.8-27.84s-46.4,27.84-92.8,27.84s-46.4-27.84-92.8-27.84
	s-46.4,27.84-92.8,27.84S46.4,346.08,0,346.08V472h464V373.92z"/>
<path style="fill:#75E6FF;" d="M0,394.08c46.4,0,46.4,27.84,92.8,27.84s46.4-27.84,92.8-27.84s46.4,27.84,92.8,27.84
	s46.4-27.84,92.8-27.84s46.4,27.84,92.8,27.84V472H0V394.08z"/>
<path style="fill:#E1E4E7;" d="M160,40c-4.266,0.014-8.512,0.598-12.624,1.736c-12.28-28.362-45.226-41.399-73.587-29.119
	c-17.857,7.731-30.415,24.184-33.165,43.447C40.416,56.056,40.216,56,40,56C17.909,56,0,73.909,0,96s17.909,40,40,40h120
	c26.51,0,48-21.49,48-48S186.51,40,160,40z"/>
<path style="fill:#1598FC;" d="M464,469.92c-46.4,0-46.4-27.84-92.8-27.84s-46.4,27.84-92.8,27.84s-46.4-27.84-92.8-27.84
	s-46.4,27.84-92.8,27.84S46.4,442.08,0,442.08V472h464V469.92z"/>
<g>
	<path style="fill:#505968;" d="M296,304H104c-4.418,0-8-3.582-8-8s3.582-8,8-8h192c13.255,0,24-10.745,24-24s-10.745-24-24-24
		s-24,10.745-24,24c0,4.418-3.582,8-8,8s-8-3.582-8-8c0-22.091,17.909-40,40-40s40,17.909,40,40S318.091,304,296,304z"/>
	<path style="fill:#505968;" d="M200,256H72c-4.418,0-8-3.582-8-8s3.582-8,8-8h128c13.255,0,24-10.745,24-24s-10.745-24-24-24
		s-24,10.745-24,24c0,4.418-3.582,8-8,8s-8-3.582-8-8c0-22.091,17.909-40,40-40s40,17.909,40,40S222.091,256,200,256z"/>
</g>
<g>
	<circle style="fill:#FFD33F;" cx="368" cy="104" r="48"/>
	<path style="fill:#FFD33F;" d="M368,32c-4.418,0-8-3.582-8-8V8c0-4.418,3.582-8,8-8s8,3.582,8,8v16C376,28.418,372.418,32,368,32z"
		/>
	<path style="fill:#FFD33F;" d="M368,208c-4.418,0-8-3.582-8-8v-16c0-4.418,3.582-8,8-8s8,3.582,8,8v16
		C376,204.418,372.418,208,368,208z"/>
	<path style="fill:#FFD33F;" d="M311.432,55.432c-2.122,0-4.156-0.844-5.656-2.344l-11.312-11.312
		c-3.07-3.178-2.982-8.242,0.196-11.312c3.1-2.994,8.016-2.994,11.116,0l11.312,11.312c3.124,3.125,3.123,8.19-0.002,11.314
		C315.587,54.589,313.553,55.432,311.432,55.432z"/>
	<path style="fill:#FFD33F;" d="M435.88,179.88c-2.122,0-4.156-0.844-5.656-2.344l-11.312-11.312
		c-3.178-3.07-3.266-8.134-0.196-11.312c3.07-3.178,8.134-3.266,11.312-0.196c0.067,0.064,0.132,0.13,0.196,0.196l11.312,11.312
		c3.124,3.125,3.123,8.19-0.002,11.314C440.035,179.037,438.001,179.88,435.88,179.88L435.88,179.88z"/>
	<path style="fill:#FFD33F;" d="M288,112h-16c-4.418,0-8-3.582-8-8s3.582-8,8-8h16c4.418,0,8,3.582,8,8S292.418,112,288,112z"/>
	<path style="fill:#FFD33F;" d="M464,112h-16c-4.418,0-8-3.582-8-8s3.582-8,8-8h16c4.418,0,8,3.582,8,8S468.418,112,464,112z"/>
	<path style="fill:#FFD33F;" d="M300.12,179.88c-4.418-0.001-7.999-3.583-7.998-8.002c0-2.121,0.843-4.155,2.342-5.654
		l11.312-11.312c3.07-3.178,8.134-3.266,11.312-0.196c3.178,3.069,3.266,8.134,0.196,11.312c-0.064,0.067-0.13,0.132-0.196,0.196
		l-11.312,11.312C304.276,179.036,302.242,179.88,300.12,179.88L300.12,179.88z"/>
	<path style="fill:#FFD33F;" d="M424.568,55.432c-4.418-0.001-7.999-3.583-7.998-8.002c0-2.121,0.843-4.154,2.342-5.654
		l11.312-11.312c3.178-3.07,8.242-2.982,11.312,0.196c2.995,3.1,2.995,8.016,0,11.116l-11.312,11.312
		C428.724,54.588,426.69,55.432,424.568,55.432z"/>
</g>
<g>
</g>
<g>
</g>
<g>
</g>
<g>
</g>
<g>
</g>
<g>
</g>
<g>
</g>
<g>
</g>
<g>
</g>
<g>
</g>
<g>
</g>
<g>
</g>
<g>
</g>
<g>
</g>
<g>
</g>
</svg>
